<svg xmlns="http://www.w3.org/2000/svg" viewBox="0 0 500 250"><path style="opacity:1;fill:#000000;fill-opacity:1;stroke:#fff;stroke-width:1;stroke-miterlimit:4;stroke-dasharray:none;stroke-dashoffset:0;stroke-opacity:1" d="M.5.5h499v249H.5z"/><path style="fill:#FDF9F2;fill-opacity:1;fill-rule:nonzero;stroke:none" d="M440.837 145.41c-.113.888-.448 3.223-3.49 3.526h-26.712c-3.041-.303-3.597-2.638-3.71-3.526v-41.237c.112-.89.533-2.781 3.575-3.084h26.86c3.042.303 3.364 2.194 3.477 3.084v41.237zm9.249-59.859h-52.41c-7.876.636-14.528 4.63-15.416 13.565v51.054c.888 8.935 7.54 13.669 15.415 14.304h52.41c7.876-.635 14.527-5.369 15.416-14.304V99.116c-.889-8.935-7.54-12.93-15.415-13.565m-212.11 15.538h-23.431V85.55h71.526v15.538H262.64v63.385h-24.664V101.09zm-30.83 0V85.55H143.02v78.923l64.98-.017.023-15.52h-40.276l.004-16.904h39.396v-15.499H167.75V101.09h39.396zm143.051 12.233c0 1.708-.424 3.206-3.49 3.206h-28.573v-15.492h28.61c3.48 0 3.453 2.278 3.453 3.7v8.586zm6.833 20.471c7.694-.616 15.364-5.853 15.364-14.453V99.855c-.892-8.893-7.565-13.696-15.475-14.33h-63.45l.002 78.95h24.663v-30.682h9.816l16.031 30.681h28.364l-19.09-30.68h3.774zM91.966 164.474l16.524-49.573v49.573h24.664V85.551H99.86l-16.032 39.463L67.795 85.55H34.499v78.923h24.664v-49.573l16.647 49.573h16.156"/></svg>