<svg width="668" height="222" xmlns="http://www.w3.org/2000/svg"><g fill="none"><path d="M.26 220.437C.26 148.668.29 76.892.157 5.124.157 1.649.842.965 4.32.965c220.732.099 441.465.09 662.202.09 0 69.056 0 138.101-.019 207.15 0 4.054-.1 8.109-.15 12.17-1.694.022-3.386.06-5.08.06-220.32.002-440.67.002-661.013.002zM53.337 89.233c1.61 2.96 3.271 5.878 4.81 8.876 9.195 17.872 18.084 35.91 27.61 53.608 6.608 12.29 16.492 20.933 30.752 23.514 7.394 1.346 14.86.459 22.283.688 3.01.08 2.471-2.132 2.471-3.905.01-40.954-.026-81.913.07-122.874.01-3.222-1.146-4.017-4.109-3.952-7.619.152-15.247.293-22.847-.042-4.153-.182-5.07 1.275-5.02 5.16.319 25.711.429 51.432.565 77.148.009 1.523.456 3.196-.742 5.218-6.51-13.125-12.66-25.709-18.972-38.225-4.418-8.74-8.078-17.901-13.511-26.07C64.049 49.374 45.323 43.95 23.72 45.235c-2.658.164-2.29 1.935-2.29 3.59-.015 41.134.009 82.251-.064 123.383 0 2.81.728 3.866 3.674 3.765 6.587-.178 13.197-.059 19.796-.059 8.421 0 8.485 0 8.39-8.267-.273-26.043-.591-52.09-.895-78.152.341-.077.667-.17 1.006-.262zm104.198 21.582c-.154 5.763.274 11.48 1.13 17.196 3.814 25.3 19.532 42.709 44.141 48.435 10.813 2.499 21.766 2.588 32.792 1.284 24.874-2.939 42.901-18.345 49.256-42.547 4.074-15.519 4.114-31.21.428-46.729-5.314-22.375-19.292-36.672-41.672-42.433-9.423-2.43-19.073-2.824-28.73-2.12-27.209 1.978-46.497 16.31-53.746 39.882-2.712 8.806-3.884 17.83-3.599 27.032zm379.17-18.467h.321c0-14.218-.08-28.426.059-42.634.04-3.019-.71-4.13-3.945-4.048-8.944.215-17.927.262-26.891-.01-3.725-.126-4.373 1.196-4.352 4.591.15 24.188.049 48.37.1 72.567.01 5.12-.648 10.118-2.122 14.999-2.827 9.393-9.77 14.543-19.501 14.7-10.08.18-17.14-4.811-20.318-14.283-1.853-5.527-2.242-11.256-2.251-17.012-.021-23.685-.08-47.363.08-71.048.018-3.526-.946-4.607-4.524-4.507-8.943.244-17.926.173-26.89.021-2.74-.042-3.784.592-3.784 3.59.178 27.405-.131 54.809.34 82.202.367 20.976 11.912 36.611 30.964 43.144 12.898 4.423 26.224 4.781 39.59 2.949 26.722-3.704 42.048-20.358 43.045-47.188.459-12.666.08-25.36.08-38.033zM286.072 45.909c0 .817-.08 1.175.01 1.479 13.829 41.99 27.714 83.971 41.459 126.002.94 2.868 2.712 2.908 5.019 2.908 10.99-.042 21.995-.24 32.984.077 4.27.131 6.154-1.233 7.488-5.309 10.408-31.582 21.045-63.08 31.624-94.602 3.356-10.024 6.742-20.04 10.287-30.548-11.356 0-22.01.136-32.65-.068-3.266-.058-3.404 2.15-3.97 4.14-5.212 18.525-10.35 37.064-15.53 55.585-3.803 13.555-7.63 27.078-11.535 40.903-2.07-1.613-1.99-3.625-2.47-5.317a24611.27 24611.27 0 01-25.426-91.193c-.698-2.487-1.245-4.176-4.49-4.118-10.81.197-21.631.061-32.8.061zm348.478 34.76c7.071-14.452 2.11-29.2-12.528-33.719-20.796-6.402-41.233-4.691-59.78 7.652-19.24 12.809-19.718 46.865 1.435 59.332 4.991 2.964 10.219 5.176 15.718 6.95 7.53 2.428 15.418 3.961 22.407 7.887 5.798 3.267 8.288 7.629 7.352 12.669-1.116 5.976-5.358 8.714-10.836 9.99-10.28 2.36-20.138.975-29.67-3.375-6.026-2.77-11.116-6.854-16.055-11.335-6.026 14.4-2.52 26.563 9.573 34.201 18.602 11.751 52.415 9.411 69.707-4.104 16.941-13.235 21.562-53.297-8.176-64.597-5.539-2.101-11.038-4.198-16.752-5.763-6.025-1.652-12.132-3.192-17.608-6.314-5.279-3.006-6.954-8.634-4.144-13.43 2.562-4.36 6.954-5.86 11.524-6.508 13.911-1.982 26.482 1.366 37.833 10.464z" fill="#000000"/><path d="M.26 220.437h661.023c1.694 0 3.386-.019 5.077-.05.05.359.101.707.16 1.065-220.57 0-441.122 0-661.695-.058-1.486 0-3.444 1.174-4.565-.957z" fill="#000000"/><path d="M666.522 221.455a41.73 41.73 0 01-.16-1.065c.05-4.053.16-8.12.16-12.182V1.066c2-.154.976 1.4.976 2.031.042 72.104.042 144.216 0 216.327-.02.636 1.024 2.19-.976 2.03zM52.335 89.498c.305 26.043.623 52.11.897 78.152.084 8.267.02 8.267-8.391 8.267-6.6 0-13.207-.12-19.794.058-2.958.1-3.686-.954-3.676-3.765.075-41.131.054-82.25.065-123.383 0-1.654-.37-3.426 2.291-3.59 21.612-1.287 40.336 4.14 52.977 23.143 5.433 8.166 9.093 17.327 13.51 26.069 6.314 12.516 12.466 25.1 18.973 38.225 1.2-2.01.751-3.685.742-5.218-.136-25.704-.244-51.427-.562-77.148-.049-3.884.87-5.342 5.02-5.16 7.6.335 15.228.206 22.847.043 2.976-.064 4.118.723 4.109 3.952-.106 40.96-.059 81.929-.07 122.873 0 1.774.538 3.985-2.472 3.905-7.434-.229-14.889.646-22.285-.687-14.258-2.581-24.142-11.225-30.752-23.515-9.521-17.69-18.415-35.735-27.607-53.608-1.54-2.988-3.203-5.915-4.81-8.875-.214-.377-.513-1.1-.642-1.081-.838.194-.515.814-.37 1.343zm105.209 21.328c-.292-9.214.878-18.237 3.58-27.03 7.252-23.576 26.538-37.908 53.75-39.885 9.654-.702 19.306-.31 28.727 2.12 22.389 5.751 36.358 20.058 41.672 42.435 3.695 15.516 3.641 31.22-.428 46.717-6.355 24.202-24.382 39.62-49.26 42.559-11.02 1.303-21.978 1.224-32.788-1.287-24.612-5.717-40.336-23.126-44.141-48.432-.838-5.71-1.275-11.436-1.112-17.197zm94.483.857c-.358-7.736-.798-16.017-3.99-23.826-4.467-10.955-12.146-17.779-24.426-18.195-11.728-.4-20.583 4.834-25.138 15.453-7.425 17.245-7.456 34.95.128 52.18 4.591 10.407 13.233 15.517 24.745 15.239 11.319-.27 18.989-6.087 23.784-16.095 3.662-7.67 4.305-15.907 4.897-24.756zm284.679-19.335c0 12.673.379 25.367-.08 38.036-.997 26.83-16.314 43.483-43.045 47.187-13.366 1.832-26.692 1.474-39.59-2.948-19.054-6.543-30.597-22.19-30.965-43.144-.468-27.394-.168-54.797-.34-82.203 0-2.997 1.056-3.631 3.785-3.59 8.964.153 17.947.225 26.89-.02 3.585-.101 4.54.98 4.524 4.506-.16 23.685-.101 47.363-.08 71.048.01 5.757.398 11.483 2.251 17.012 3.187 9.481 10.237 14.463 20.318 14.283 9.732-.169 16.674-5.31 19.501-14.7 1.474-4.88 2.132-9.881 2.122-14.999-.049-24.197.05-48.39-.1-72.566-.021-3.396.63-4.718 4.352-4.591 8.964.283 17.947.234 26.89.009 3.228-.08 3.983 1.03 3.953 4.048-.147 14.206-.068 28.416-.068 42.634-.098-.002-.208-.002-.318-.002zM286.071 45.909c11.169 0 21.99.136 32.797-.07 3.245-.059 3.795 1.633 4.49 4.12 8.403 30.422 16.904 60.818 25.426 91.202.48 1.674.4 3.705 2.471 5.317 3.906-13.825 7.731-27.359 11.534-40.914 5.19-18.521 10.328-37.065 15.53-55.586.566-1.986.697-4.198 3.971-4.14 10.64.207 21.296.071 32.65.071-3.548 10.506-6.934 20.521-10.287 30.546-10.579 31.524-21.214 63.022-31.625 94.604-1.333 4.062-3.217 5.426-7.487 5.316-10.987-.33-21.991-.14-32.984-.098-2.305.021-4.067-.02-5.02-2.908-13.745-42.01-27.63-83.99-41.459-125.99-.089-.286-.007-.653-.007-1.47zm348.478 34.76c-11.354-9.088-23.924-12.444-37.826-10.469-4.581.648-8.964 2.148-11.524 6.507-2.799 4.797-1.125 10.425 4.135 13.432 5.478 3.121 11.592 4.661 17.617 6.313 5.705 1.565 11.225 3.66 16.743 5.763 29.738 11.3 25.117 51.362 8.185 64.597-17.29 13.516-51.114 15.877-69.707 4.104-12.103-7.64-15.599-19.8-9.573-34.2 4.94 4.48 10.029 8.585 16.054 11.334 9.543 4.35 19.382 5.736 29.67 3.375 5.47-1.264 9.712-4.014 10.849-9.99.936-5.04-1.554-9.404-7.362-12.668-7-3.945-14.88-5.46-22.419-7.888-5.478-1.774-10.717-3.985-15.696-6.95-21.156-12.467-20.678-46.525-1.444-59.332 18.556-12.34 38.99-14.065 59.767-7.651 14.644 4.52 19.604 19.271 12.53 33.723z" fill="#FDF9F2"/><path d="M52.335 89.498c-.145-.53-.48-1.161.358-1.346.12-.019.42.704.642 1.081-.337.091-.663.185-1 .265z" fill="#000000"/><path d="M252.027 111.683c-.592 8.847-1.235 17.086-4.895 24.754-4.795 9.999-12.465 15.816-23.783 16.094-11.504.27-20.154-4.85-24.745-15.237-7.584-17.241-7.544-34.945-.13-52.19 4.557-10.617 13.411-15.852 25.139-15.454 12.28.421 19.96 7.242 24.427 18.198 3.182 7.82 3.63 16.101 3.987 23.835z" fill="#000000"/></g></svg>