<svg xmlns="http://www.w3.org/2000/svg" width="404.086" height="154.867" viewBox="0 0 404.086 154.867"><defs><style>.a{fill:#00000;}.b{fill:#FDF9F2;}</style></defs><g transform="translate(0 -0.064)"><path class="a" d="M166.113.08C147.64.5,134.7,13.072,128.634,20.518c0,0-.266.317-.479.581a7.263,7.263,0,0,1-.745-.264c-12.671-4.542-26.991-5.387-41.419-2.482C72.1,21.2,52.185,28.334,37.7,39.9,12.31,60.232-1.053,84.737.065,108.924c.639,14,7.134,26.089,18.74,34.961C37.864,158.514,69.327,155.133,82,153.021c14.161-2.376,235.79-41.774,264.912-47.319,26.459-5.017,51.64-13.942,56.7-44.942a32.543,32.543,0,0,0,.479-5.545V55c0-7.6-2.4-14.682-6.548-19.487-7.773-8.925-20.817-9.981-29.92-10.034-12.671-.053-148.64,2.535-164.078,2.852h-1.011c-.054-.475-.107-.951-.107-.951a30.116,30.116,0,0,0-7.294-16.16C190.443,5.942,181.606-.29,166.113.08Z" transform="translate(0)"/><path class="b" d="M111.95,37.3c7.718-.317,15.278-3.749,15.864-11.724.426-5.334-3.726-10.826-12.191-11.3a18.476,18.476,0,0,0-12.085,3.168,12.455,12.455,0,0,0-4.684,7.182c-.852,3.433-.426,6.284,1.224,8.5C102.315,36.031,106.573,37.51,111.95,37.3Z" transform="translate(54.004 7.774)"/><path class="b" d="M372.039,44.544c-1.118,2.429-3.407,4.964-5.431,5.281l-.9.211s.8-5.386.852-6.971c.16-7.393-1.6-15.1-13.2-14.47-7.133.422-17.514,6.548-19.112,19.8v.053l-.053.053a.576.576,0,0,1-.053.264c-1.758,4.594-5.005,11.09-7.347,11.354a1.578,1.578,0,0,1-1.278-.422,2.52,2.52,0,0,1-.64-1.848,33.879,33.879,0,0,1,1.33-6.39,71.569,71.569,0,0,0,2.131-11.09c.852-9.03-4.739-10.826-10.542-10.4a16.413,16.413,0,0,0-9.317,4.066L306.4,36.359s.959-4.436,1.225-5.651c-1.651.053-11.925.422-12.99.422l-4.578,18.325c-1.6,2.112-3.78,3.855-5.643,4.33l-.9.211-.107-.951a17.131,17.131,0,0,0-.426-2.8c-.266-2.059-2.077-9.083-9-8.5-17.835,1.479-17.3,23.394-6.655,20.279l1.225-.37-.214,1.32c-1.437,8.714-5.163,13.308-10.328,13.994a2.508,2.508,0,0,1-2.075-.687A5.676,5.676,0,0,1,254.6,72c.107-4.278,8.677-39.871,8.677-39.871s-15.439.581-16.557.634c-.8,3.274-4.2,17.427-4.2,17.427l-.533,1.848a56.15,56.15,0,0,0-1.385,5.651V57.8l-.053.053c-.054.106-.054.211-.107.264-2.608,6.707-7.133,13.994-10.647,14.364a1.964,1.964,0,0,1-1.758-.581,2.745,2.745,0,0,1-.745-2.007V69.84l.319-2.9s8.784-31.844,9.424-33.956c-1.97.053-18.846.37-18.846.37l-1.651,5.809c-.426-4.753-10.488-11.09-18.048-4.33-7.985,7.129-10.169,17.849-11.392,28.411l-.107.422c-1.7,12.727-4.685,21.44-13.576,22.549a8.081,8.081,0,0,1-5.165-.634,23.5,23.5,0,0,0,6.443-6.654c3.3-5.439,1.81-10.192-1.651-12.463-6.921-4.489-14.48,1-15.81,7.974a13.739,13.739,0,0,0,2.023,9.981c-2.4,1.373-4.313,2.852-7.613,3.274a5.345,5.345,0,0,1-4.525-1.584c-1.97-2.64.692-11.143,1.065-12.252,0,0,12.244-36.068,12.936-38.286-2.129.106-24.649.845-25.767.9-.745,2.271-3.62,11.09-6.548,19.222-5.75,15.9-22.467,37.653-39.716,42.089-9.157,2.376-16.344,1.954-20.869-.845-6.176-3.8-9.743-12.833-7.347-25.507A59.936,59.936,0,0,1,66.452,54c14.428-30.418,37.639-23.553,36.2-21.229a27.212,27.212,0,0,0-4.419,2.007c-3.727,1.954-9.689,7.71-9.9,14.839-.16,4.594,1.118,8.291,3.62,10.72,2.449,2.376,6.069,3.485,10.168,3.116,9.157-.845,16.61-7.657,16.93-17.8.16-5.492-1.384-9.981-4.579-13.308-5.164-5.334-11.18-7.974-24.6-7.6-20.816.581-52.333,15.315-61.384,47.9-3.034,10.984.958,24.292,7.613,30.312,9.21,8.4,20.656,11.459,40.727,7.71,17.888-3.327,32.528-15.42,43.336-28.094a2.148,2.148,0,0,1-.053.581c-2.555,9.294.905,19.222,16.61,17.216,6.548-.845,18.047-4.542,26.087-10.773,3.673,3.169,10.062,5.07,17.3,4.014,2.983-.422,10.595-2.429,17.3-11.988,5.27-7.5,7.932-22.18,9.422-30.1.692-3.7,1.118-6.126,1.7-7.129a4.914,4.914,0,0,1,2.343-2.693c2.822-1.162,4.259,1.531,3.726,3.591-.531,2.007-3.46,12.093-3.46,12.146l-.533,1.584c-1.7,4.911-3.674,10.509-3.833,16.423-.107,4.33,1.011,7.763,3.3,9.875,2.129,1.954,5.165,2.746,8.731,2.218C228.669,86.1,235.695,76.177,239,70.42l.479-.845.64-1.162.372,2.165c1.544,8.608,8.412,12.093,18.74,10.562,13.362-1.954,21.4-8.819,23.851-20.754l.105-.528.48-.158a17.453,17.453,0,0,0,3.673-1.9l1.011-.687L283.61,76.282c1.917-.264,14.428-2.376,15.439-2.482.266-1.162,5.75-24.4,5.75-24.4.959-4.014,3.567-11.671,6.548-11.882a2.136,2.136,0,0,1,1.6.634,4.254,4.254,0,0,1,.959,3.063,35.551,35.551,0,0,1-1.81,8.661,76.619,76.619,0,0,0-2.715,13.572c-.746,8.08,6.122,8.027,8.145,7.71,4.844-.686,11.287-3.221,16.771-15.156l.266,1.268a11.979,11.979,0,0,0,13.628,9.611c7.72-1.162,12.99-5.334,15.919-12.2l.212-.475.479-.053c3.035-.317,7.187-3.8,8.253-7.869C372.677,46.076,372.625,45.284,372.039,44.544ZM167.552,70.051c2.768.106,3.886,1.8,2.342,5.175-.745,1.637-2.929,4.119-5.75,6.231C160.683,76.018,164.09,69.892,167.552,70.051ZM270.088,55.528c-.533.739-1.6,1.215-3.354,1.532-1.81.317-2.289-.687-2.343-1.109-.372-1.584,1.385-4.172,2.876-4.858a2.155,2.155,0,0,1,2.182.106C270.673,52.624,270.088,55.528,270.088,55.528Zm84.968-.792c-1.118,3.327-2.61,6.918-5.591,7.288a3.069,3.069,0,0,1-2.5-.634c-1.011-.9-1.437-1.743-1.383-4.753.16-7.076,3.886-24.767,8.944-24.979a2.4,2.4,0,0,1,1.863.792c1.064,1.162,1.49,3.38,1.225,6.02l-.054.317s-5.27.211-5.856,8.027a7.637,7.637,0,0,0,3.619,6.918Zm1.437-5.175c-1.7-1.056-1.651-4.172-.692-5.281a1.367,1.367,0,0,1,1.6-.475A26.738,26.738,0,0,1,356.494,49.561Z" transform="translate(15.065 13.523)"/></g></svg>